<mxfile host="Electron" agent="Mozilla/5.0 (Macintosh; Intel Mac OS X 10_15_7) AppleWebKit/537.36 (KHTML, like Gecko) draw.io/24.7.17 Chrome/128.0.6613.36 Electron/32.0.1 Safari/537.36" version="24.7.17">
  <diagram name="Page-1" id="EXQF-W41Bc2EzEBSdjF2">
    <mxGraphModel dx="1125" dy="1098" grid="1" gridSize="10" guides="1" tooltips="1" connect="1" arrows="1" fold="1" page="1" pageScale="1" pageWidth="850" pageHeight="1100" math="0" shadow="0">
      <root>
        <mxCell id="0" />
        <mxCell id="1" parent="0" />
        <mxCell id="TLbDlx7E-o7ZPIGpJrcf-4" value="MongoDB Atlas (nasa database)" style="rounded=1;whiteSpace=wrap;html=1;align=center;labelPosition=center;verticalLabelPosition=bottom;verticalAlign=top;fillColor=#ffe6cc;strokeColor=#d79b00;" vertex="1" parent="1">
          <mxGeometry x="360" y="60" width="275" height="150" as="geometry" />
        </mxCell>
        <mxCell id="9KjZKQUlH3sFJPp5h10t-5" value="NASA Mission Control Project" style="rounded=1;whiteSpace=wrap;html=1;verticalAlign=top;labelPosition=center;verticalLabelPosition=bottom;align=center;dashed=1;fillColor=#dae8fc;strokeColor=#6c8ebf;strokeWidth=3;perimeterSpacing=17;" parent="1" vertex="1">
          <mxGeometry x="200" y="290" width="570" height="260" as="geometry" />
        </mxCell>
        <mxCell id="9KjZKQUlH3sFJPp5h10t-3" value="" style="edgeStyle=orthogonalEdgeStyle;rounded=0;orthogonalLoop=1;jettySize=auto;html=1;" parent="1" source="9KjZKQUlH3sFJPp5h10t-1" target="9KjZKQUlH3sFJPp5h10t-2" edge="1">
          <mxGeometry relative="1" as="geometry" />
        </mxCell>
        <mxCell id="9KjZKQUlH3sFJPp5h10t-4" value="HTTP" style="edgeLabel;html=1;align=center;verticalAlign=middle;resizable=0;points=[];" parent="9KjZKQUlH3sFJPp5h10t-3" vertex="1" connectable="0">
          <mxGeometry x="-0.0353" relative="1" as="geometry">
            <mxPoint as="offset" />
          </mxGeometry>
        </mxCell>
        <mxCell id="9KjZKQUlH3sFJPp5h10t-1" value="Web Application&lt;div&gt;(nasa-fe)&lt;/div&gt;" style="rounded=0;whiteSpace=wrap;html=1;" parent="1" vertex="1">
          <mxGeometry x="240" y="440" width="120" height="60" as="geometry" />
        </mxCell>
        <mxCell id="9KjZKQUlH3sFJPp5h10t-2" value="Node API&lt;div&gt;(nasa-project-api)&lt;/div&gt;" style="whiteSpace=wrap;html=1;rounded=0;" parent="1" vertex="1">
          <mxGeometry x="440" y="440" width="120" height="60" as="geometry" />
        </mxCell>
        <mxCell id="rVIXq87kdJ0t4xBZK6Fz-1" value="Web Browser" style="rounded=1;whiteSpace=wrap;html=1;fillColor=#60a917;fontColor=#ffffff;strokeColor=#2D7600;" parent="1" vertex="1">
          <mxGeometry x="20" y="430" width="120" height="60" as="geometry" />
        </mxCell>
        <mxCell id="rVIXq87kdJ0t4xBZK6Fz-2" style="edgeStyle=orthogonalEdgeStyle;rounded=0;orthogonalLoop=1;jettySize=auto;html=1;entryX=0;entryY=0.5;entryDx=0;entryDy=0;startArrow=classic;startFill=1;exitX=1;exitY=0.5;exitDx=0;exitDy=0;" parent="1" source="rVIXq87kdJ0t4xBZK6Fz-1" target="9KjZKQUlH3sFJPp5h10t-1" edge="1">
          <mxGeometry relative="1" as="geometry">
            <mxPoint x="215" y="360" as="sourcePoint" />
            <mxPoint x="405" y="460" as="targetPoint" />
            <Array as="points">
              <mxPoint x="225" y="470" />
              <mxPoint x="225" y="460" />
              <mxPoint x="240" y="460" />
            </Array>
          </mxGeometry>
        </mxCell>
        <mxCell id="rVIXq87kdJ0t4xBZK6Fz-3" value="HTTP" style="edgeLabel;html=1;align=center;verticalAlign=middle;resizable=0;points=[];" parent="rVIXq87kdJ0t4xBZK6Fz-2" vertex="1" connectable="0">
          <mxGeometry x="-0.3213" y="2" relative="1" as="geometry">
            <mxPoint as="offset" />
          </mxGeometry>
        </mxCell>
        <mxCell id="rVIXq87kdJ0t4xBZK6Fz-5" style="edgeStyle=orthogonalEdgeStyle;rounded=0;orthogonalLoop=1;jettySize=auto;html=1;" parent="1" source="rVIXq87kdJ0t4xBZK6Fz-4" target="9KjZKQUlH3sFJPp5h10t-2" edge="1">
          <mxGeometry relative="1" as="geometry" />
        </mxCell>
        <mxCell id="rVIXq87kdJ0t4xBZK6Fz-4" value="kepler_data.csv" style="shape=document;whiteSpace=wrap;html=1;boundedLbl=1;" parent="1" vertex="1">
          <mxGeometry x="610" y="435" width="120" height="70" as="geometry" />
        </mxCell>
        <mxCell id="TLbDlx7E-o7ZPIGpJrcf-7" style="edgeStyle=orthogonalEdgeStyle;rounded=0;orthogonalLoop=1;jettySize=auto;html=1;entryX=0.5;entryY=0;entryDx=0;entryDy=0;" edge="1" parent="1" source="rVIXq87kdJ0t4xBZK6Fz-6" target="rVIXq87kdJ0t4xBZK6Fz-4">
          <mxGeometry relative="1" as="geometry" />
        </mxCell>
        <mxCell id="TLbDlx7E-o7ZPIGpJrcf-8" value="manual&amp;nbsp;&lt;div&gt;download&lt;/div&gt;" style="edgeLabel;html=1;align=center;verticalAlign=middle;resizable=0;points=[];" vertex="1" connectable="0" parent="TLbDlx7E-o7ZPIGpJrcf-7">
          <mxGeometry x="0.0049" y="1" relative="1" as="geometry">
            <mxPoint as="offset" />
          </mxGeometry>
        </mxCell>
        <mxCell id="rVIXq87kdJ0t4xBZK6Fz-6" value="NASA Exoplanet Archive" style="ellipse;shape=cloud;whiteSpace=wrap;html=1;fillColor=#b0e3e6;strokeColor=#0e8088;" parent="1" vertex="1">
          <mxGeometry x="610" y="150" width="120" height="80" as="geometry" />
        </mxCell>
        <mxCell id="TLbDlx7E-o7ZPIGpJrcf-1" value="MongoDB Cluster" style="shape=cylinder3;whiteSpace=wrap;html=1;boundedLbl=1;backgroundOutline=1;size=15;" vertex="1" parent="1">
          <mxGeometry x="405" y="80" width="95" height="80" as="geometry" />
        </mxCell>
        <mxCell id="TLbDlx7E-o7ZPIGpJrcf-3" value="MongoDB Cluster" style="shape=cylinder3;whiteSpace=wrap;html=1;boundedLbl=1;backgroundOutline=1;size=15;" vertex="1" parent="1">
          <mxGeometry x="500" y="80" width="95" height="80" as="geometry" />
        </mxCell>
        <mxCell id="TLbDlx7E-o7ZPIGpJrcf-5" style="edgeStyle=orthogonalEdgeStyle;rounded=0;orthogonalLoop=1;jettySize=auto;html=1;exitX=0.5;exitY=1;exitDx=0;exitDy=0;exitPerimeter=0;entryX=0.5;entryY=0;entryDx=0;entryDy=0;" edge="1" parent="1" source="TLbDlx7E-o7ZPIGpJrcf-2" target="9KjZKQUlH3sFJPp5h10t-2">
          <mxGeometry relative="1" as="geometry">
            <Array as="points">
              <mxPoint x="500" y="190" />
            </Array>
          </mxGeometry>
        </mxCell>
        <mxCell id="TLbDlx7E-o7ZPIGpJrcf-6" value="mongodb driver" style="edgeLabel;html=1;align=center;verticalAlign=middle;resizable=0;points=[];" vertex="1" connectable="0" parent="TLbDlx7E-o7ZPIGpJrcf-5">
          <mxGeometry x="-0.2848" y="1" relative="1" as="geometry">
            <mxPoint as="offset" />
          </mxGeometry>
        </mxCell>
        <mxCell id="TLbDlx7E-o7ZPIGpJrcf-2" value="MongoDB Cluster" style="shape=cylinder3;whiteSpace=wrap;html=1;boundedLbl=1;backgroundOutline=1;size=15;" vertex="1" parent="1">
          <mxGeometry x="450" y="110" width="95" height="80" as="geometry" />
        </mxCell>
      </root>
    </mxGraphModel>
  </diagram>
</mxfile>
